<svg version="1.1" xmlns="http://www.w3.org/2000/svg" width="75.08334" height="75.08334" viewBox="0 0 75.08334 75.08334"><g transform="translate(-282.45833,-142.45836)" fill-rule="nonzero" stroke-linejoin="miter"><path d="M282.70833 180.00003c0-20.59562 16.69605-37.29167 37.29167-37.29167s37.29167 16.69605 37.29167 37.29167-16.69605 37.29167-37.29167 37.29167-37.29167-16.69605-37.29167-37.29167z" fill="#232128" stroke="#fff" stroke-width=".5"/><g stroke="none"><path d="M319.78463 167.34007h5.01896l7.2273-14.65536 2.81061-.20076 3.21214 5.01896 1.60607 18.31969-1.80683 19.47356-12.84853 9.6364h-5.01896z" fill="#00e7e0"/><path d="M320.01462 204.96179h-5.01896l-12.84853-9.63641-1.80683-19.47356 1.60607-18.31969 3.21214-5.01896 2.81061.20076 7.2273 14.65536h5.01896z" fill="#72ffff"/><path d="M320.06924 207.92641h5.09949l10.92747-7.49313 1.31113 8.60099c-6.32132 2.16836-11.01631 5.32344-17.4957 5.98479z" fill="#00e7e0"/><path d="m304.05744 200.44842 10.92748 7.49313h5.09949l.15648 7.0416c-2.49354.28946-5.24754.21161-8.46188-.43749-3.14526-.63516-6.46029-1.85846-9.38966-3.15451z" fill="#72ffff"/></g><path d="m319.66137 198.73581-3.83635-6.69299-3.875 4.875-2.5-6.875-2.5 3.75-3.125-4.5 3.125 4.125 2.5-4.875 2.73214 6.94643 3.69643-4.80357 3.82124 6.27011zM320.11073 197.02721l3.82124-6.27011 3.69643 4.80357 2.73215-6.94643 2.5 4.875 3.125-4.125-3.125 4.5-2.5-3.75-2.5 6.875-3.875-4.875-3.83635 6.693z" fill="#232128" stroke="#232128" stroke-width=".5" stroke-linecap="round"/><circle cx="320.00001" cy="180.00003" r="34.49167" fill="none" stroke="#232128" stroke-width="5"/><path d="m320.25 181.1-5.7-.1-1.6-1.9 7.2-.2z" fill="#00cbc4" fill-opacity=".64706"/><path d="m320.35 178.9 7.2.2-1.6 1.9-5.7.1z" fill="#00cbc4" fill-opacity=".64706"/></g></svg>