<svg version="1.1" xmlns="http://www.w3.org/2000/svg" width="163.25" height="163.25" viewBox="0 0 163.25 163.25"><rect width="163.25" height="163.25" rx="81.625" fill="#232128"/><g transform="translate(-238.375,-98.375)" fill-rule="nonzero" stroke="none"><path d="M348.08981,132.94017l6.39648,3.08401l3.19824,7.88137l-10.16583,5.82536z" fill="#00e7e0"/><path d="M361.14471,212.16019l8.14286,-25.89605l-2.57143,-8.42857l-4,-3l-8.57143,1.62848l-8.14285,-2.85715l1.85714,-4.71428l6.14286,3.14286l2,-6.71428l6.28571,3.42857l.14285,-10l-1.71428,6.71429l-6,-3.28572l-2.14285,6.57143l-5.57143,-3l-2.57143,6.85714l-6.85714,-4.28571l-2,-7.42857l26.42857,-13.85714l4.28571,-18.14286l9.14285,5.71428l14.85715,20.91949l3.42857,15.85714l-1.42857,20.04174l-20.71428,39.47618l-10.85715,.04762z" fill="#72ffff"/><path d="M328.16586,212.155l-15.85714,6.85714l-14.28571,11.90476l-9.57143,.04762l4.71429,-20.38096l12,-15.42857l23.71429,-13.42857l17,-3l11.14286,2.71429l5.85714,4.28571l.42857,6.14286l-26.28571,39.2381l-8.14286,-.09524z" fill="#72ffff"/><text transform="translate(274.56815 190.45239) rotate(-17.25799) scale(.36695)" font-size="40" fill="#00e7e0" font-family="monospace">odeWolf</text><path d="M296.6172,196.53334l-6.33334,9.33333l-20,6l-2.66666,-8l-8.33334,2.66667l-13,-41.33334l8,-3l-2.66666,-8l40,-11.33334l-3.33334,9.66667l-4.66666,6l4,1.66667l-9,5.33333l-24,-2.66667l12.33333,40.66667z" fill="#00e7e0"/></g></svg>