<svg version="1.1" xmlns="http://www.w3.org/2000/svg" xmlns:xlink="http://www.w3.org/1999/xlink" width="75.08333" height="75.08333" viewBox="0,0,75.08333,75.08333"><g transform="translate(-282.45833,-142.45833)"><g data-paper-data="{&quot;isPaintingLayer&quot;:true}" fill-rule="nonzero" stroke-linejoin="miter" stroke-miterlimit="10" stroke-dasharray="" stroke-dashoffset="0" style="mix-blend-mode: normal"><path d="M282.70833,180c0,-20.59562 16.69605,-37.29167 37.29167,-37.29167c20.59562,0 37.29167,16.69605 37.29167,37.29167c0,20.59562 -16.69605,37.29167 -37.29167,37.29167c-20.59562,0 -37.29167,-16.69605 -37.29167,-37.29167z" fill="#232128" stroke="#ffffff" stroke-width="0.5" stroke-linecap="butt"/><g stroke="none" stroke-width="0"><path d="M304.03132,157.5962l6.39648,3.08401l3.19824,7.88137l-10.16583,5.82536z" fill="#00e7e0" stroke-linecap="round"/><path d="M322.65765,202.4916l-4,-3l-8.57143,1.62848l-8.14285,-2.85715l1.85714,-4.71428l6.14286,3.14286l2,-6.71428l6.28571,3.42857l0.14285,-10l-1.71428,6.71429l-6,-3.28572l-2.14285,6.57143l-5.57143,-3l-2.57143,6.85714l-6.85714,-4.28571l-2,-7.42857l26.42857,-13.85714l4.28571,-18.14286l9.14285,5.71428l14.85715,20.91949l5.85612,15.83456c0,0 -3.78327,6.09246 -10.18434,10.53581c-5.0462,3.50286 -12.17353,5.14809 -17.23515,7.69854z" fill="#72ffff" stroke-linecap="butt"/></g><path d="M285.50833,180c0,-19.04922 15.44244,-34.49167 34.49167,-34.49167c19.04922,0 34.49166,15.44244 34.49166,34.49167c0,19.04922 -15.44244,34.49167 -34.49166,34.49167c-19.04922,0 -34.49167,-15.44244 -34.49167,-34.49167z" fill="none" stroke="#232128" stroke-width="5" stroke-linecap="butt"/></g></g></svg>
