<svg version="1.1" xmlns="http://www.w3.org/2000/svg" width="75.08333" height="75.08333" viewBox="0 0 75.08333 75.08333"><g transform="translate(-282.45833,-142.45833)" fill-rule="nonzero"><path d="M282.70833,180c0,-20.59562 16.69605,-37.29167 37.29167,-37.29167c20.59562,0 37.29167,16.69605 37.29167,37.29167c0,20.59562 -16.69605,37.29167 -37.29167,37.29167c-20.59562,0 -37.29167,-16.69605 -37.29167,-37.29167z" fill="#232128" stroke="#fff" stroke-width=".5"/><g stroke="none"><path d="M304.03132,157.5962l6.39648,3.08401l3.19824,7.88137l-10.16583,5.82536z" fill="#00e7e0"/><path d="M322.65765,202.4916l-4,-3l-8.57143,1.62848l-8.14285,-2.85715l1.85714,-4.71428l6.14286,3.14286l2,-6.71428l6.28571,3.42857l.14285,-10l-1.71428,6.71429l-6,-3.28572l-2.14285,6.57143l-5.57143,-3l-2.57143,6.85714l-6.85714,-4.28571l-2,-7.42857l26.42857,-13.85714l4.28571,-18.14286l9.14285,5.71428l14.85715,20.91949l5.85612,15.83456s-3.78327,6.09246-10.18434,10.53581c-5.0462,3.50286-12.17353,5.14809-17.23515,7.69854z" fill="#72ffff"/></g><circle cx="320" cy="180" r="34.49167" fill="none" stroke="#232128" stroke-width="5"/></g></svg>